WalkerModelTerrain_states
version=1
nRows=31
nColumns=13
inDegrees=yes

# SIMM Motion File Header:
name WalkerModelTerrain_states
datacolumns 13
datarows 31
otherdata 1
range 0.00000000 0.11947652
endheader
time	Pelvis_tx	Pelvis_ty	LHip_rz	RHip_rz	LKnee_rz	RKnee_rz	Pelvis_tx_u	Pelvis_ty_u	LHip_rz_u	RHip_rz_u	LKnee_rz_u	RKnee_rz_u
      0.00000000	      0.00000000	      1.00000000	     30.00000025	    -10.00000028	    -30.00000025	    -30.00000025	      0.00000000	      0.00000000	      0.00000000	      0.00000000	      0.00000000	      0.00000000
      0.01000000	      0.00008515	      0.99951712	     30.00000025	    -10.00000028	    -30.00000025	    -30.00000025	      0.01702907	     -0.09657665	      0.00000000	      0.00000000	     -0.00000000	     -0.00000000
      0.06000000	      0.00306523	      0.98261620	     30.00000025	    -10.00000028	    -30.00000025	    -30.00000025	      0.10217441	     -0.57945990	      0.00000000	      0.00000000	     -0.00000000	     -0.00000000
      0.08500000	      0.00615175	      0.96511169	     30.00000025	    -10.00000028	    -30.00000025	    -30.00000025	      0.14474709	     -0.82090152	      0.00000000	      0.00000000	     -0.00000000	     -0.00000000
      0.09750000	      0.00809413	      0.95409591	     30.00000025	    -10.00000028	    -30.00000025	    -30.00000025	      0.16603342	     -0.94162233	      0.00000000	      0.00000000	     -0.00000000	     -0.00000000
      0.10375000	      0.00916510	      0.94802215	     30.00000025	    -10.00000028	    -30.00000025	    -30.00000025	      0.17667659	     -1.00198274	      0.00000000	      0.00000000	     -0.00000000	     -0.00000000
      0.10687500	      0.00972553	      0.94484379	     30.00000025	    -10.00000028	    -30.00000025	    -30.00000025	      0.18199818	     -1.03216294	      0.00000000	      0.00000000	     -0.00000000	     -0.00000000
      0.10843750	      0.01001198	      0.94321925	     30.00000025	    -10.00000028	    -30.00000025	    -30.00000025	      0.18465897	     -1.04725304	      0.00000000	      0.00000000	     -0.00000000	     -0.00000000
      0.11625000	      0.01150660	      0.93474286	     30.00000025	    -10.00000028	    -30.00000025	    -30.00000025	      0.19796293	     -1.12270355	      0.00000000	      0.00000000	     -0.00000000	     -0.00000000
      0.11664063	      0.01158405	      0.93430356	     30.00000025	    -10.00000028	    -30.00000025	    -30.00000025	      0.19862813	     -1.12647608	      0.00000000	      0.00000000	     -0.00000000	     -0.00000000
      0.11685388	      0.01162645	      0.93406311	     30.00000025	    -10.00000028	    -30.00000025	    -30.00000025	      0.19899128	     -1.12853565	      0.00000000	      0.00000000	     -0.00000000	     -0.00000000
      0.11711675	      0.01167882	      0.93376612	     30.00000025	    -10.00000028	    -30.00000025	    -30.00000025	      0.19943893	     -1.13107436	      0.00000000	      0.00000000	     -0.00000000	     -0.00000000
      0.11728910	      0.01171322	      0.93357104	     30.00000025	    -10.00000028	    -30.00000025	    -30.00000025	      0.19973241	     -1.13273881	      0.00000000	      0.00000000	     -0.00000000	     -0.00000000
      0.11744434	      0.01174424	      0.93339508	     30.00000025	    -10.00000028	    -30.00000025	    -30.00000025	      0.19999678	     -1.13423807	      0.00000000	      0.00000000	     -0.00000000	     -0.00000000
      0.11759365	      0.01177412	      0.93322562	     30.00000025	    -10.00000028	    -30.00000025	    -30.00000025	      0.20025103	     -1.13568004	      0.00000000	      0.00000000	     -0.00000000	     -0.00000000
      0.11774743	      0.01180494	      0.93305086	     30.00000025	    -10.00000028	    -30.00000025	    -30.00000025	      0.20051291	     -1.13716522	      0.00000000	      0.00000000	     -0.00000000	     -0.00000000
      0.11784065	      0.01182364	      0.93294481	     30.00000038	    -10.00000027	    -30.00000082	    -30.00000026	      0.20066977	     -1.13806482	      0.00925540	      0.00025873	     -0.04208089	     -0.00026793
      0.11793387	      0.01184235	      0.93283868	     30.00000476	    -10.00000015	    -30.00002077	    -30.00000038	      0.20080891	     -1.13895777	      0.10519745	      0.00294258	     -0.47819688	     -0.00304451
      0.11806248	      0.01186819	      0.93269212	     30.00003917	     -9.99999918	    -30.00017688	    -30.00000138	      0.20094948	     -1.14016934	      0.48438415	      0.01365429	     -2.19451235	     -0.01397463
      0.11819109	      0.01189404	      0.93254541	     30.00014504	     -9.99999617	    -30.00065476	    -30.00000442	      0.20101002	     -1.14134451	      1.22775951	      0.03517090	     -5.52242156	     -0.03518669
      0.11831970	      0.01191989	      0.93239855	     30.00037259	     -9.99998956	    -30.00167176	    -30.00001090	      0.20096960	     -1.14246202	      2.38037402	      0.07004510	    -10.57389693	     -0.06744473
      0.11844830	      0.01194572	      0.93225155	     30.00077492	     -9.99997748	    -30.00344108	    -30.00002220	      0.20080537	     -1.14348699	      3.94129370	      0.12079002	    -17.16167585	     -0.10966157
      0.11857691	      0.01197153	      0.93210443	     30.00140164	     -9.99995770	    -30.00612893	    -30.00003940	      0.20049005	     -1.14436546	      5.85681061	      0.19011874	    -24.73710200	     -0.15852329
      0.11868640	      0.01199346	      0.93197910	     30.00214221	     -9.99993288	    -30.00920076	    -30.00005912	      0.20007968	     -1.14494690	      7.69714817	      0.26592551	    -31.35093207	     -0.20162796
      0.11879590	      0.01201534	      0.93185371	     30.00309215	     -9.99989884	    -30.01298180	    -30.00008349	      0.19952143	     -1.14533603	      9.67494101	      0.35877786	    -37.63602710	     -0.24320278
      0.11890539	      0.01203715	      0.93172830	     30.00426518	     -9.99985366	    -30.01742323	    -30.00011228	      0.19880589	     -1.14551446	     11.77261464	      0.46961953	    -43.40801438	     -0.28214340
      0.11901488	      0.01205887	      0.93160287	     30.00567511	     -9.99979533	    -30.02247147	    -30.00014520	      0.19793045	     -1.14548220	     14.00698550	      0.59882884	    -48.74931504	     -0.31897956
      0.11912437	      0.01208049	      0.93147746	     30.00733869	     -9.99972185	    -30.02809071	    -30.00018210	      0.19689654	     -1.14524930	     16.41167049	      0.74643300	    -53.87818131	     -0.35507092
      0.11923386	      0.01210198	      0.93135209	     30.00927648	     -9.99963121	    -30.03427073	    -30.00022298	      0.19570702	     -1.14482817	     19.02096100	      0.91230330	    -59.02863272	     -0.39187039
      0.11934336	      0.01212334	      0.93122677	     30.01151243	     -9.99952141	    -30.04102475	    -30.00026798	      0.19436492	     -1.14422966	     21.86158620	      1.09625419	    -64.38912343	     -0.43054829
      0.11947652	      0.01214910	      0.93107446	     30.01467176	     -9.99935923	    -30.05005739	    -30.00032864	      0.19253108	     -1.14327453	     25.65193405	      1.34402448	    -71.37016251	     -0.48123169
